<svg id="Layer_1" data-name="Layer 1" xmlns="http://www.w3.org/2000/svg" viewBox="0 0 1494 397.87"><defs><style>.cls-1{fill:#1adea6;}.cls-2{fill:#1c2629;}.cls-3{fill:#fff;}</style></defs><path class="cls-1" d="M335.18,397.87H62.69A62.69,62.69,0,0,1,0,335.18V62.69A62.69,62.69,0,0,1,62.69,0H335.18a62.69,62.69,0,0,1,62.69,62.69V335.18a62.69,62.69,0,0,1-62.69,62.69"/><polygon class="cls-2" points="312.97 88.2 255.07 88.2 84.9 258.37 84.9 316.27 142.8 316.27 198.93 260.14 255.07 316.27 312.97 316.27 312.97 258.37 256.84 202.24 312.97 146.11 312.97 88.2"/><rect class="cls-2" x="84.9" y="88.2" width="81.06" height="89.11"/><polygon class="cls-3" points="681.37 317.15 617.23 236.2 605.56 236.2 605.56 317.15 539.71 317.15 539.71 87.33 605.56 87.33 605.56 174.11 613.8 174.11 682.06 87.33 759.92 87.33 670.39 202.93 766.44 317.15 681.37 317.15"/><path class="cls-3" d="M907.1,245.63q16.29-17.32,16.29-43.39,0-25.73-16.29-43.22t-41-17.49q-24.71,0-41,17.49t-16.29,43.22q0,26.07,16.29,43.39t41,17.33q24.69,0,41-17.33m47-128.63q35.85,34.82,35.85,85.24t-35.85,85.24q-35.85,34.81-88,34.82t-88-34.82q-35.85-34.82-35.84-85.24T778.12,117q35.85-34.81,88-34.82t88,34.82"/><path class="cls-3" d="M1170.23,245.63q16.29-17.32,16.29-43.39,0-25.73-16.29-43.22t-41-17.49q-24.71,0-41,17.49T1072,202.24q0,26.07,16.3,43.39t41,17.33q24.69,0,41-17.33m47-128.63q35.85,34.82,35.85,85.24t-35.85,85.24q-35.85,34.81-88,34.82t-88-34.82q-35.85-34.82-35.84-85.24T1041.25,117q35.85-34.81,88-34.82t88,34.82"/><path class="cls-3" d="M1387,191.6q13.71,0,22-7t8.23-18.35a21.61,21.61,0,0,0-8.23-17.66q-8.23-6.69-22-6.69h-44.25V191.6Zm27.78,125.55-63.12-73.4h-8.91v73.4h-65.86V87.33h122.46q37,0,59.85,21.27T1482,164.51q0,27.44-14.75,47.16t-40.47,27.61L1494,317.15Z"/></svg>